<?xml version="1.0" encoding="UTF-8" standalone="no"?>
<!-- Created with Inkscape (http://www.inkscape.org/) -->

<svg
   xmlns:dc="http://purl.org/dc/elements/1.1/"
   xmlns:cc="http://creativecommons.org/ns#"
   xmlns:rdf="http://www.w3.org/1999/02/22-rdf-syntax-ns#"
   xmlns:svg="http://www.w3.org/2000/svg"
   xmlns="http://www.w3.org/2000/svg"
   xmlns:sodipodi="http://sodipodi.sourceforge.net/DTD/sodipodi-0.dtd"
   xmlns:inkscape="http://www.inkscape.org/namespaces/inkscape"
   width="116.63124mm"
   height="196.28398mm"
   viewBox="0 0 413.2603 695.49442"
   id="svg2"
   version="1.1"
   inkscape:version="0.91 r13725"
   sodipodi:docname="logo.svg">
  <defs
     id="defs4" />
  <sodipodi:namedview
     id="base"
     pagecolor="#ffffff"
     bordercolor="#666666"
     borderopacity="1.0"
     inkscape:pageopacity="0.0"
     inkscape:pageshadow="2"
     inkscape:zoom="0.49497475"
     inkscape:cx="-202.44082"
     inkscape:cy="166.53422"
     inkscape:document-units="px"
     inkscape:current-layer="layer1"
     showgrid="false"
     fit-margin-top="0"
     fit-margin-left="0"
     fit-margin-right="0"
     fit-margin-bottom="0"
     inkscape:window-width="1680"
     inkscape:window-height="987"
     inkscape:window-x="-8"
     inkscape:window-y="-8"
     inkscape:window-maximized="1" />
  <metadata
     id="metadata7">
    <rdf:RDF>
      <cc:Work
         rdf:about="">
        <dc:format>image/svg+xml</dc:format>
        <dc:type
           rdf:resource="http://purl.org/dc/dcmitype/StillImage" />
        <dc:title></dc:title>
      </cc:Work>
    </rdf:RDF>
  </metadata>
  <g
     inkscape:label="Layer 1"
     inkscape:groupmode="layer"
     id="layer1"
     transform="translate(-153.36984,-95.21875)">
    <g
       id="g3370">
      <path
         inkscape:connector-curvature="0"
         id="path3345"
         d="m 360,95.21875 a 205.71428,205.71428 0 0 0 -205.71484,205.71484 205.71428,205.71428 0 0 0 62.4707,147.35352 C 248.26654,344.40907 360,164.0293 360,164.0293 c 0,0 111.89545,180.64215 143.3125,284.48437 A 205.71428,205.71428 0 0 0 565.71484,300.93359 205.71428,205.71428 0 0 0 360,95.21875 Z"
         style="fill:#0b0b28;fill-opacity:1" />
      <path
         inkscape:connector-curvature="0"
         id="path3336"
         d="M 503.3125,448.51367 A 205.71428,205.71428 0 0 1 360,506.64844 205.71428,205.71428 0 0 1 216.75586,448.28711 c -5.1726,17.05198 -8.18359,32.04524 -8.18359,43.83789 0,83.6317 67.79603,151.42773 151.42773,151.42773 83.63169,0 151.42773,-67.79603 151.42773,-151.42773 0,-11.74059 -2.98449,-26.65277 -8.11523,-43.61133 z"
         style="fill:#212178;fill-opacity:0.99803922" />
      <path
         d="m 200.16984,707.01315 0,-18 c 0,-12.96 -10.44,-23.4 -23.4,-23.4 -12.96,0 -23.4,10.44 -23.4,23.4 l 0,78.3 c 0,12.96 10.44,23.4 23.4,23.4 12.96,0 23.4,-10.44 23.4,-23.4 l 0,-16.56 -9.36,0 0,16.56 c 0,7.74 -6.3,14.04 -14.04,14.04 -7.74,0 -14.04,-6.3 -14.04,-14.04 l 0,-78.3 c 0,-7.74 6.3,-14.04 14.04,-14.04 7.74,0 14.04,6.3 14.04,14.04 l 0,19.08 9.36,-1.08 z"
         style="font-style:normal;font-variant:normal;font-weight:normal;font-stretch:normal;font-size:180px;line-height:125%;font-family:Dense;-inkscape-font-specification:Dense;letter-spacing:0px;word-spacing:0px;fill:#0b0b28;fill-opacity:1;stroke:none;stroke-width:1px;stroke-linecap:butt;stroke-linejoin:miter;stroke-opacity:1"
         id="path3344"
         inkscape:connector-curvature="0" />
      <path
         d="m 213.10171,770.37315 c 0,10.8 8.64,19.44 19.44,19.44 10.8,0 19.44,-8.64 19.44,-19.44 l 0,-50.76 c 0,-10.8 -8.64,-19.44 -19.44,-19.44 -10.8,0 -19.44,8.64 -19.44,19.44 l 0,50.76 z m 9.36,-50.76 c 0,-5.58 4.5,-10.08 10.08,-10.08 5.58,0 10.08,4.5 10.08,10.08 l 0,50.76 c 0,5.58 -4.5,10.08 -10.08,10.08 -5.58,0 -10.08,-4.5 -10.08,-10.08 l 0,-50.76 z"
         style="font-style:normal;font-variant:normal;font-weight:normal;font-stretch:normal;font-size:180px;line-height:125%;font-family:Dense;-inkscape-font-specification:Dense;letter-spacing:0px;word-spacing:0px;fill:#0b0b28;fill-opacity:1;stroke:none;stroke-width:1px;stroke-linecap:butt;stroke-linejoin:miter;stroke-opacity:1"
         id="path3346"
         inkscape:connector-curvature="0" />
      <path
         d="m 275.57296,788.91315 0,-69.3 c 0,-5.58 4.5,-10.08 10.08,-10.08 5.58,0 10.08,4.5 10.08,10.08 l 0,69.3 9.36,0 0,-69.3 c 0,-10.8 -7.74,-19.44 -17.1,-19.44 -5.58,0 -10.62,3.06 -13.68,7.74 l -1.62,-6.84 -6.48,0 0,87.84 9.36,0 z"
         style="font-style:normal;font-variant:normal;font-weight:normal;font-stretch:normal;font-size:180px;line-height:125%;font-family:Dense;-inkscape-font-specification:Dense;letter-spacing:0px;word-spacing:0px;fill:#0b0b28;fill-opacity:1;stroke:none;stroke-width:1px;stroke-linecap:butt;stroke-linejoin:miter;stroke-opacity:1"
         id="path3348"
         inkscape:connector-curvature="0" />
      <path
         d="m 358.51359,667.41315 -9.36,1.08 0,37.8 c -3.06,-3.78 -7.56,-6.12 -12.42,-6.12 -9.36,0 -17.1,8.64 -17.1,19.44 l 0,50.76 c 0,10.8 7.74,19.44 17.1,19.44 5.58,0 10.62,-3.06 13.68,-7.74 l 1.62,6.84 6.48,0 0,-121.5 z m -9.36,102.96 c 0,5.58 -4.5,10.08 -10.08,10.08 -5.58,0 -10.08,-4.5 -10.08,-10.08 l 0,-50.76 c 0,-5.58 4.5,-10.08 10.08,-10.08 5.58,0 10.08,4.5 10.08,10.08 l 0,50.76 z"
         style="font-style:normal;font-variant:normal;font-weight:normal;font-stretch:normal;font-size:180px;line-height:125%;font-family:Dense;-inkscape-font-specification:Dense;letter-spacing:0px;word-spacing:0px;fill:#212178;fill-opacity:1;stroke:none;stroke-width:1px;stroke-linecap:butt;stroke-linejoin:miter;stroke-opacity:1"
         id="path3350"
         inkscape:connector-curvature="0" />
      <path
         d="m 402.58265,759.93315 0,10.44 c 0,5.58 -4.5,10.08 -10.08,10.08 -5.58,0 -10.08,-4.5 -10.08,-10.08 l 0,-23.76 29.52,0 0,-27 c 0,-10.8 -8.64,-19.44 -19.44,-19.44 -10.8,0 -19.44,8.64 -19.44,19.44 l 0,50.76 c 0,10.8 8.64,19.44 19.44,19.44 10.8,0 19.44,-8.64 19.44,-19.44 l 0,-11.52 -9.36,1.08 z m -20.16,-40.32 c 0,-5.58 4.5,-10.08 10.08,-10.08 5.58,0 10.08,4.5 10.08,10.08 l 0,17.64 -20.16,0 0,-17.64 z"
         style="font-style:normal;font-variant:normal;font-weight:normal;font-stretch:normal;font-size:180px;line-height:125%;font-family:Dense;-inkscape-font-specification:Dense;letter-spacing:0px;word-spacing:0px;fill:#212178;fill-opacity:1;stroke:none;stroke-width:1px;stroke-linecap:butt;stroke-linejoin:miter;stroke-opacity:1"
         id="path3352"
         inkscape:connector-curvature="0" />
      <path
         d="m 434.83077,788.91315 0,-69.3 c 0,-5.58 4.5,-10.08 10.08,-10.08 5.58,0 10.08,4.5 10.08,10.08 l 0,69.3 9.36,0 0,-69.3 c 0,-10.8 -7.74,-19.44 -17.1,-19.44 -5.58,0 -10.62,3.06 -13.68,7.74 l -1.62,-6.84 -6.48,0 0,87.84 9.36,0 z"
         style="font-style:normal;font-variant:normal;font-weight:normal;font-stretch:normal;font-size:180px;line-height:125%;font-family:Dense;-inkscape-font-specification:Dense;letter-spacing:0px;word-spacing:0px;fill:#212178;fill-opacity:1;stroke:none;stroke-width:1px;stroke-linecap:butt;stroke-linejoin:miter;stroke-opacity:1"
         id="path3354"
         inkscape:connector-curvature="0" />
      <path
         d="m 506.4314,770.37315 c 0,5.58 -4.5,10.08 -10.08,10.08 -5.58,0 -10.08,-4.5 -10.08,-10.08 l 0,-9.72 -9.36,1.08 0,8.64 c 0,10.8 8.64,19.44 19.44,19.44 10.8,0 19.44,-8.64 19.44,-19.44 l 0,-7.56 c 0,-9.54 -6.3,-14.76 -6.3,-14.76 l -19.44,-16.2 c 0,0 -3.06,-2.52 -3.06,-7.56 l 0,-5.4 c 0,-5.22 4.14,-9.36 9.36,-9.36 5.22,0 9.36,4.14 9.36,9.36 l 0,9.18 9.36,-1.08 0,-8.1 c 0,-10.26 -8.46,-18.72 -18.72,-18.72 -10.26,0 -18.72,8.46 -18.72,18.72 l 0,5.4 c 0,9.54 6.3,14.76 6.3,14.76 l 19.44,16.2 c 0,0 3.06,2.52 3.06,7.56 l 0,7.56 z"
         style="font-style:normal;font-variant:normal;font-weight:normal;font-stretch:normal;font-size:180px;line-height:125%;font-family:Dense;-inkscape-font-specification:Dense;letter-spacing:0px;word-spacing:0px;fill:#212178;fill-opacity:1;stroke:none;stroke-width:1px;stroke-linecap:butt;stroke-linejoin:miter;stroke-opacity:1"
         id="path3356"
         inkscape:connector-curvature="0" />
      <path
         d="m 557.27015,759.93315 0,10.44 c 0,5.58 -4.5,10.08 -10.08,10.08 -5.58,0 -10.08,-4.5 -10.08,-10.08 l 0,-23.76 29.52,0 0,-27 c 0,-10.8 -8.64,-19.44 -19.44,-19.44 -10.8,0 -19.44,8.64 -19.44,19.44 l 0,50.76 c 0,10.8 8.64,19.44 19.44,19.44 10.8,0 19.44,-8.64 19.44,-19.44 l 0,-11.52 -9.36,1.08 z m -20.16,-40.32 c 0,-5.58 4.5,-10.08 10.08,-10.08 5.58,0 10.08,4.5 10.08,10.08 l 0,17.64 -20.16,0 0,-17.64 z"
         style="font-style:normal;font-variant:normal;font-weight:normal;font-stretch:normal;font-size:180px;line-height:125%;font-family:Dense;-inkscape-font-specification:Dense;letter-spacing:0px;word-spacing:0px;fill:#212178;fill-opacity:1;stroke:none;stroke-width:1px;stroke-linecap:butt;stroke-linejoin:miter;stroke-opacity:1"
         id="path3358"
         inkscape:connector-curvature="0" />
    </g>
  </g>
</svg>
